<svg width="69" height="30" viewBox="0 0 69 30" fill="none" xmlns="http://www.w3.org/2000/svg">
<g filter="url(#filter0_d_46_1521)">
<path d="M12.6381 18.9938H10.9324L9.99803 16.0578H6.75031L5.86028 18.9938H4.19971L7.41808 8.99842H9.40543L12.6381 18.9938ZM9.71644 14.826L8.87147 12.216C8.7821 11.9494 8.61385 11.3215 8.36744 10.3331H8.33746C8.23831 10.7582 8.07984 11.3861 7.86278 12.216L7.03209 14.826H9.71644ZM20.8985 15.3015C20.8985 16.5272 20.5658 17.4961 19.8995 18.2075C19.3032 18.8405 18.5619 19.1568 17.6778 19.1568C16.7232 19.1568 16.0367 18.8165 15.6198 18.1346V21.9163H14.0185V14.1553C14.0185 13.3854 13.9983 12.5961 13.9593 11.7864H15.3675L15.4569 12.9288H15.4869C16.0209 12.0681 16.8313 11.6376 17.9189 11.6376C18.7691 11.6376 19.4789 11.9734 20.0467 12.6456C20.6138 13.3194 20.8985 14.2041 20.8985 15.3015V15.3015ZM19.2671 15.3601C19.2671 14.6585 19.1094 14.0802 18.7924 13.6243C18.4461 13.1504 17.9812 12.9131 17.3984 12.9131C17.0033 12.9131 16.6443 13.0452 16.3236 13.3059C16.0021 13.5687 15.7918 13.912 15.6935 14.3371C15.6439 14.5354 15.6192 14.6969 15.6192 14.8246V16.027C15.6192 16.5505 15.7799 16.993 16.1013 17.355C16.4228 17.7155 16.8404 17.8964 17.3541 17.8964C17.9573 17.8964 18.4267 17.6629 18.7624 17.1994C19.0988 16.7345 19.2671 16.1216 19.2671 15.3601V15.3601ZM29.1881 15.3015C29.1881 16.5272 28.8553 17.4961 28.1891 18.2075C27.592 18.8405 26.8515 19.1568 25.9667 19.1568C25.0121 19.1568 24.3256 18.8165 23.9087 18.1346V21.9163H22.3074V14.1553C22.3074 13.3854 22.2872 12.5961 22.2481 11.7864H23.6564L23.7458 12.9288H23.7758C24.3091 12.0681 25.1195 11.6376 26.2077 11.6376C27.0572 11.6376 27.767 11.9734 28.3363 12.6456C28.9027 13.3194 29.1881 14.2041 29.1881 15.3015ZM27.556 15.3601C27.556 14.6585 27.3976 14.0802 27.0805 13.6243C26.7343 13.1504 26.2709 12.9131 25.688 12.9131C25.293 12.9131 24.934 13.0452 24.6117 13.3059C24.2903 13.5687 24.0808 13.912 23.9823 14.3371C23.9335 14.5354 23.9072 14.6969 23.9072 14.8246V16.027C23.9072 16.5505 24.0687 16.993 24.3887 17.355C24.7101 17.7147 25.1277 17.8964 25.643 17.8964C26.2468 17.8964 26.7162 17.6629 27.0512 17.1994C27.3877 16.7345 27.556 16.1216 27.556 15.3601V15.3601ZM38.4564 16.19C38.4564 17.041 38.1589 17.7327 37.5679 18.2667C36.9174 18.8496 36.0094 19.1417 34.8452 19.1417C33.7696 19.1417 32.9074 18.9344 32.257 18.5191L32.6273 17.1844C33.3295 17.6005 34.1009 17.8078 34.9406 17.8078C35.5444 17.8078 36.0139 17.6711 36.3488 17.4C36.6845 17.1281 36.8543 16.7646 36.8543 16.3109C36.8543 15.9046 36.7139 15.5643 36.4382 15.2873C36.1611 15.0109 35.7029 14.7532 35.0593 14.5167C33.3092 13.864 32.4335 12.9093 32.4335 11.6535C32.4335 10.8334 32.7429 10.1619 33.3604 9.6369C33.9777 9.11265 34.7964 8.85059 35.8149 8.85059C36.7244 8.85059 37.4823 9.00906 38.0839 9.32527L37.6821 10.6306C37.1158 10.3241 36.4765 10.1709 35.7615 10.1709C35.1968 10.1709 34.7536 10.3099 34.4366 10.5863C34.17 10.8334 34.0348 11.1346 34.0348 11.4921C34.0348 11.8864 34.1888 12.2139 34.4952 12.4708C34.7611 12.7073 35.2463 12.965 35.9478 13.2414C36.8085 13.5884 37.4408 13.9925 37.8457 14.4566C38.2536 14.9207 38.4564 15.4998 38.4564 16.19V16.19ZM43.7643 12.9881H41.9992V16.4874C41.9992 17.3774 42.3102 17.8213 42.9336 17.8213C43.2197 17.8213 43.4571 17.7972 43.6449 17.747L43.6891 18.963C43.3737 19.081 42.9583 19.1402 42.4438 19.1402C41.8114 19.1402 41.3172 18.9472 40.9605 18.5611C40.6052 18.1751 40.4265 17.5284 40.4265 16.6181V12.9851H39.3749V11.7834H40.4265V10.4638L41.9992 9.98909V11.7834H43.7643V12.9881V12.9881ZM51.7121 15.3308C51.7121 16.4385 51.3952 17.3481 50.7628 18.0594C50.1011 18.7917 49.2208 19.1568 48.1235 19.1568C47.0645 19.1568 46.2225 18.806 45.5946 18.1052C44.9667 17.4029 44.6528 16.5182 44.6528 15.4509C44.6528 14.334 44.9772 13.4193 45.6239 12.708C46.2721 11.996 47.1449 11.64 48.2422 11.64C49.2997 11.64 50.1492 11.9915 50.7921 12.693C51.4065 13.3735 51.7121 14.2522 51.7121 15.3308V15.3308ZM50.0523 15.3676C50.0523 14.7073 49.9096 14.141 49.6234 13.6671C49.2877 13.0947 48.807 12.8086 48.1843 12.8086C47.5429 12.8086 47.051 13.0947 46.716 13.6671C46.4291 14.141 46.2863 14.7171 46.2863 15.3975C46.2863 16.0586 46.4291 16.6263 46.716 17.0988C47.0622 17.6711 47.5452 17.9573 48.1708 17.9573C48.7829 17.9573 49.2629 17.6651 49.6099 17.0845C49.9044 16.5993 50.0523 16.0293 50.0523 15.3676V15.3676ZM56.9194 13.1947C56.7609 13.1653 56.5912 13.1503 56.4147 13.1503C55.8514 13.1503 55.4158 13.3622 55.1094 13.7887C54.8435 14.1643 54.7098 14.639 54.7098 15.212V18.9937H53.1085V14.0562C53.1085 13.2262 53.0927 12.4692 53.0619 11.7872H54.4567L54.5153 13.1661H54.5596C54.7293 12.6922 54.9952 12.3099 55.3602 12.0237C55.717 11.7661 56.1022 11.6376 56.5177 11.6376C56.6656 11.6376 56.7993 11.6482 56.918 11.667L56.9194 13.1947V13.1947ZM64.0809 15.0491C64.0809 15.336 64.0621 15.5778 64.0223 15.7754H59.2184C59.2364 16.4874 59.4693 17.0327 59.9154 17.4082C60.3203 17.7433 60.8437 17.9115 61.4867 17.9115C62.1979 17.9115 62.8468 17.7988 63.4304 17.5712L63.6813 18.6821C62.9993 18.9795 62.1942 19.1275 61.2651 19.1275C60.1476 19.1275 59.2702 18.7984 58.6318 18.142C57.9949 17.4849 57.6758 16.6016 57.6758 15.4952C57.6758 14.4091 57.9724 13.5041 58.5665 12.7824C59.1884 12.0117 60.0288 11.6264 61.0864 11.6264C62.1251 11.6264 62.9115 12.0117 63.4455 12.7824C63.8683 13.393 64.0809 14.1501 64.0809 15.0491V15.0491ZM62.5539 14.6338C62.5652 14.1583 62.4601 13.749 62.243 13.4027C61.9658 12.9566 61.5392 12.7343 60.9677 12.7343C60.4442 12.7343 60.0176 12.9513 59.6931 13.387C59.4265 13.7332 59.268 14.1493 59.2192 14.6323L62.5539 14.6338Z" fill="white"/>
<path d="M8.94417 5.42034H8.10515L7.64624 3.97752H6.0502L5.61232 5.42034H4.7959L6.37767 0.507545H7.35407L8.94417 5.42034ZM7.50804 3.37216L7.09269 2.08931C7.04913 1.95788 6.96877 1.65219 6.84484 1.16399H6.82982C6.77875 1.37504 6.70589 1.68148 6.59623 2.08931L6.1884 3.37216H7.50804ZM12.8993 1.87826L11.5579 5.42034H10.7924L9.49464 1.87826H10.3404L10.9457 3.75145C11.0479 4.06465 11.135 4.36358 11.2003 4.64749H11.2221C11.2808 4.39287 11.3678 4.09394 11.4767 3.75145L12.0746 1.87826H12.8993V1.87826ZM15.7549 5.42034L15.6963 5.01245H15.6744C15.4341 5.34067 15.0841 5.50065 14.6395 5.50065C14.0056 5.50065 13.5534 5.05601 13.5534 4.45815C13.5534 3.5839 14.3112 3.13175 15.6234 3.13175V3.0664C15.6234 2.59998 15.3755 2.3664 14.8873 2.3664C14.5373 2.3664 14.2309 2.45428 13.962 2.62928L13.8019 2.11178C14.1302 1.90749 14.5381 1.80534 15.0194 1.80534C15.9448 1.80534 16.4119 2.29354 16.4119 3.2707V4.57532C16.4119 4.93283 16.427 5.20998 16.463 5.42103L15.7549 5.42034V5.42034ZM15.6452 3.65606C14.7703 3.65606 14.3331 3.86787 14.3331 4.37034C14.3331 4.74212 14.5592 4.92388 14.8724 4.92388C15.2734 4.92388 15.6452 4.61819 15.6452 4.20285V3.65606ZM18.1651 1.29467C17.903 1.29467 17.6987 1.09038 17.6987 0.820744C17.6987 0.551107 17.9098 0.354325 18.1801 0.354325C18.4497 0.354325 18.6683 0.551107 18.6609 0.820744C18.6609 1.1054 18.4573 1.29467 18.1651 1.29467ZM18.5737 5.42034H17.7865V1.87826H18.5737V5.42034ZM20.7593 5.42034H19.9722V0.25293H20.7593V5.42034ZM24.1046 5.42034L24.046 5.01245H24.0242C23.7839 5.34067 23.4339 5.50065 22.9893 5.50065C22.3553 5.50065 21.9032 5.05601 21.9032 4.45815C21.9032 3.5839 22.661 3.13175 23.9731 3.13175V3.0664C23.9731 2.59998 23.7253 2.3664 23.237 2.3664C22.887 2.3664 22.5806 2.45428 22.3117 2.62928L22.1511 2.11103C22.4793 1.90674 22.8871 1.80459 23.3686 1.80459C24.2939 1.80459 24.761 2.29279 24.761 3.26995V4.57457C24.761 4.93208 24.7768 5.20923 24.8114 5.42028H24.1046V5.42034ZM23.995 3.65606C23.1199 3.65606 22.6828 3.86787 22.6828 4.37034C22.6828 4.74212 22.9088 4.92388 23.222 4.92388C23.6231 4.92388 23.995 4.61819 23.995 4.20285V3.65606V3.65606ZM27.9502 5.50071C27.4477 5.50071 27.0766 5.28891 26.8363 4.87356H26.8205L26.7754 5.42034H26.1047C26.1265 5.13644 26.134 4.81498 26.134 4.46572V0.25293H26.9219V2.39651H26.9369C27.1704 2.00294 27.5484 1.80616 28.0665 1.80616C28.9198 1.80616 29.5176 2.53545 29.5176 3.59898C29.5176 4.69856 28.8537 5.50071 27.9502 5.50071V5.50071ZM27.7901 2.4243C27.3372 2.4243 26.9227 2.81786 26.9227 3.36464V3.98428C26.9227 4.47248 27.2952 4.87356 27.7767 4.87356C28.3663 4.87356 28.717 4.39287 28.717 3.62752C28.7162 2.91325 28.3512 2.4243 27.7901 2.4243V2.4243ZM31.4682 5.42034H30.6819V0.25293H31.4682V5.42034ZM35.7531 3.83857H33.3902C33.406 4.50929 33.8491 4.88783 34.5055 4.88783C34.8555 4.88783 35.1762 4.82925 35.4602 4.72034L35.5826 5.26712C35.2476 5.41283 34.854 5.48569 34.3951 5.48569C33.2865 5.48569 32.6308 4.78568 32.6308 3.70038C32.6308 2.61432 33.3024 1.7979 34.3065 1.7979C35.2101 1.7979 35.7794 2.46861 35.7794 3.48181C35.7824 3.62001 35.7756 3.74394 35.7531 3.83857V3.83857ZM35.0313 3.27752C35.0313 2.73073 34.7541 2.34468 34.2509 2.34468C33.7987 2.34468 33.4428 2.73825 33.3902 3.27752H35.0313V3.27752ZM40.5239 5.50071C39.4889 5.50071 38.8182 4.72785 38.8182 3.67859C38.8182 2.58503 39.5032 1.80541 40.5833 1.80541C41.6024 1.80541 42.2889 2.54146 42.2889 3.62076C42.289 4.72785 41.5814 5.50071 40.5239 5.50071ZM40.554 2.38073C39.9854 2.38073 39.6212 2.9125 39.6212 3.65606C39.6212 4.38536 39.993 4.91712 40.5465 4.91712C41.1001 4.91712 41.471 4.34856 41.471 3.64104C41.4718 2.92001 41.1075 2.38073 40.554 2.38073V2.38073ZM46.5205 5.42034H45.7342V3.38643C45.7342 2.76003 45.4938 2.44608 45.0199 2.44608C44.5535 2.44608 44.2321 2.84715 44.2321 3.31357V5.42034H43.4457V2.89071C43.4457 2.57752 43.4374 2.24178 43.4164 1.87751H44.1089L44.1457 2.4243H44.1675C44.3777 2.04575 44.8089 1.80466 45.2896 1.80466C46.0324 1.80466 46.5206 2.37322 46.5206 3.29855V5.42034H46.5205V5.42034ZM51.6707 2.46861H50.8047V4.18858C50.8047 4.62646 50.9572 4.84502 51.2628 4.84502C51.4018 4.84502 51.5189 4.83 51.6128 4.80822L51.6347 5.40607C51.4814 5.46472 51.2764 5.49395 51.0232 5.49395C50.4028 5.49395 50.0326 5.15146 50.0326 4.25467V2.46861H49.5158V1.87826H50.0326V1.22933L50.8047 0.995745V1.87751H51.6707V2.46861ZM55.8392 5.42034H55.0513V3.40145C55.0513 2.76754 54.8109 2.44683 54.3371 2.44683C53.9292 2.44683 53.5507 2.72398 53.5507 3.28503V5.42034H52.7628V0.25293H53.5507V2.38073H53.5657C53.8136 1.99468 54.1711 1.80466 54.63 1.80466C55.3803 1.80466 55.8392 2.38749 55.8392 3.31357V5.42034V5.42034ZM59.8612 3.83857H57.4991C57.5141 4.50929 57.9572 4.88783 58.6138 4.88783C58.9645 4.88783 59.2844 4.82925 59.5684 4.72034L59.6916 5.26712C59.3565 5.41283 58.9623 5.48569 58.5033 5.48569C57.3948 5.48569 56.7391 4.78568 56.7391 3.70038C56.7391 2.61432 57.4106 1.7979 58.4147 1.7979C59.3183 1.7979 59.8876 2.46861 59.8876 3.48181C59.8905 3.62001 59.8829 3.74394 59.8612 3.83857V3.83857ZM59.1394 3.27752C59.1394 2.73073 58.863 2.34468 58.3598 2.34468C57.9069 2.34468 57.5509 2.73825 57.499 3.27752H59.1394V3.27752Z" fill="white"/>
</g>
<defs>
<filter id="filter0_d_46_1521" x="0.199707" y="0.25293" width="67.8812" height="29.6636" filterUnits="userSpaceOnUse" color-interpolation-filters="sRGB">
<feFlood flood-opacity="0" result="BackgroundImageFix"/>
<feColorMatrix in="SourceAlpha" type="matrix" values="0 0 0 0 0 0 0 0 0 0 0 0 0 0 0 0 0 0 127 0" result="hardAlpha"/>
<feOffset dy="4"/>
<feGaussianBlur stdDeviation="2"/>
<feComposite in2="hardAlpha" operator="out"/>
<feColorMatrix type="matrix" values="0 0 0 0 0 0 0 0 0 0 0 0 0 0 0 0 0 0 0.25 0"/>
<feBlend mode="normal" in2="BackgroundImageFix" result="effect1_dropShadow_46_1521"/>
<feBlend mode="normal" in="SourceGraphic" in2="effect1_dropShadow_46_1521" result="shape"/>
</filter>
</defs>
</svg>
