<svg width="56" height="6" viewBox="0 0 56 6" fill="none" xmlns="http://www.w3.org/2000/svg">
<path d="M4.94417 5.42034H4.10515L3.64624 3.97752H2.0502L1.61232 5.42034H0.795898L2.37767 0.507545H3.35407L4.94417 5.42034ZM3.50804 3.37216L3.09269 2.08931C3.04913 1.95788 2.96877 1.65219 2.84484 1.16399H2.82982C2.77875 1.37504 2.70589 1.68148 2.59623 2.08931L2.1884 3.37216H3.50804ZM8.89928 1.87826L7.55785 5.42034H6.79244L5.49464 1.87826H6.34035L6.94572 3.75145C7.04787 4.06465 7.135 4.36358 7.20034 4.64749H7.22212C7.28077 4.39287 7.36783 4.09394 7.47673 3.75145L8.07459 1.87826H8.89928ZM11.7549 5.42034L11.6963 5.01245H11.6744C11.4341 5.34067 11.0841 5.50065 10.6395 5.50065C10.0056 5.50065 9.5534 5.05601 9.5534 4.45815C9.5534 3.5839 10.3112 3.13175 11.6234 3.13175V3.0664C11.6234 2.59998 11.3755 2.3664 10.8873 2.3664C10.5373 2.3664 10.2309 2.45428 9.96199 2.62928L9.80195 2.11178C10.1302 1.90749 10.5381 1.80534 11.0194 1.80534C11.9448 1.80534 12.4119 2.29355 12.4119 3.2707V4.57532C12.4119 4.93283 12.427 5.20998 12.463 5.42103L11.7549 5.42034ZM11.6452 3.65606C10.7703 3.65606 10.3331 3.86787 10.3331 4.37034C10.3331 4.74212 10.5592 4.92388 10.8724 4.92388C11.2734 4.92388 11.6452 4.61819 11.6452 4.20285V3.65606ZM14.1651 1.29467C13.903 1.29467 13.6987 1.09038 13.6987 0.820744C13.6987 0.551107 13.9098 0.354325 14.1801 0.354325C14.4497 0.354325 14.6683 0.551107 14.6609 0.820744C14.6609 1.1054 14.4573 1.29467 14.1651 1.29467ZM14.5737 5.42034H13.7865V1.87826H14.5737V5.42034ZM16.7593 5.42034H15.9722V0.25293H16.7593V5.42034ZM20.1046 5.42034L20.046 5.01245H20.0242C19.7839 5.34067 19.4339 5.50065 18.9893 5.50065C18.3553 5.50065 17.9032 5.05601 17.9032 4.45815C17.9032 3.5839 18.661 3.13175 19.9731 3.13175V3.0664C19.9731 2.59998 19.7253 2.3664 19.237 2.3664C18.887 2.3664 18.5806 2.45428 18.3117 2.62928L18.1511 2.11103C18.4793 1.90674 18.8871 1.80459 19.3686 1.80459C20.2939 1.80459 20.761 2.29279 20.761 3.26995V4.57457C20.761 4.93208 20.7768 5.20923 20.8114 5.42028H20.1046V5.42034ZM19.995 3.65606C19.1199 3.65606 18.6828 3.86787 18.6828 4.37034C18.6828 4.74212 18.9088 4.92388 19.222 4.92388C19.6231 4.92388 19.995 4.61819 19.995 4.20285V3.65606ZM23.9502 5.50071C23.4477 5.50071 23.0766 5.28891 22.8363 4.87356H22.8205L22.7754 5.42034H22.1047C22.1265 5.13644 22.134 4.81498 22.134 4.46572V0.25293H22.9219V2.39651H22.9369C23.1704 2.00294 23.5484 1.80616 24.0665 1.80616C24.9198 1.80616 25.5176 2.53545 25.5176 3.59898C25.5176 4.69856 24.8537 5.50071 23.9502 5.50071ZM23.7901 2.4243C23.3372 2.4243 22.9227 2.81786 22.9227 3.36464V3.98428C22.9227 4.47248 23.2952 4.87356 23.7767 4.87356C24.3663 4.87356 24.717 4.39287 24.717 3.62752C24.7162 2.91325 24.3512 2.4243 23.7901 2.4243ZM27.4682 5.42034H26.6819V0.25293H27.4682V5.42034ZM31.7531 3.83857H29.3902C29.406 4.50929 29.8491 4.88783 30.5055 4.88783C30.8555 4.88783 31.1762 4.82925 31.4602 4.72034L31.5826 5.26712C31.2476 5.41283 30.854 5.48569 30.3951 5.48569C29.2865 5.48569 28.6308 4.78568 28.6308 3.70038C28.6308 2.61432 29.3024 1.7979 30.3065 1.7979C31.2101 1.7979 31.7794 2.46861 31.7794 3.48181C31.7824 3.62001 31.7756 3.74394 31.7531 3.83857ZM31.0313 3.27752C31.0313 2.73073 30.7541 2.34468 30.2509 2.34468C29.7987 2.34468 29.4428 2.73825 29.3902 3.27752H31.0313ZM36.5239 5.50071C35.4889 5.50071 34.8182 4.72785 34.8182 3.67859C34.8182 2.58503 35.5032 1.80541 36.5833 1.80541C37.6024 1.80541 38.2889 2.54146 38.2889 3.62076C38.289 4.72785 37.5814 5.50071 36.5239 5.50071ZM36.554 2.38073C35.9854 2.38073 35.6212 2.9125 35.6212 3.65606C35.6212 4.38536 35.993 4.91712 36.5465 4.91712C37.1001 4.91712 37.471 4.34856 37.471 3.64104C37.4718 2.92001 37.1075 2.38073 36.554 2.38073ZM42.5205 5.42034H41.7342V3.38643C41.7342 2.76003 41.4938 2.44608 41.0199 2.44608C40.5535 2.44608 40.2321 2.84715 40.2321 3.31357V5.42034H39.4457V2.89071C39.4457 2.57752 39.4374 2.24178 39.4164 1.87751H40.1089L40.1457 2.4243H40.1675C40.3777 2.04575 40.8089 1.80466 41.2896 1.80466C42.0324 1.80466 42.5206 2.37322 42.5206 3.29855V5.42034H42.5205ZM47.6707 2.46861H46.8047V4.18858C46.8047 4.62646 46.9572 4.84502 47.2628 4.84502C47.4018 4.84502 47.5189 4.83 47.6128 4.80822L47.6347 5.40607C47.4814 5.46472 47.2764 5.49395 47.0232 5.49395C46.4028 5.49395 46.0326 5.15146 46.0326 4.25467V2.46861H45.5158V1.87826H46.0326V1.22933L46.8047 0.995745V1.87751H47.6707V2.46861ZM51.8392 5.42034H51.0513V3.40145C51.0513 2.76754 50.8109 2.44683 50.3371 2.44683C49.9292 2.44683 49.5507 2.72398 49.5507 3.28503V5.42034H48.7628V0.25293H49.5507V2.38073H49.5657C49.8136 1.99468 50.1711 1.80466 50.63 1.80466C51.3803 1.80466 51.8392 2.38749 51.8392 3.31357V5.42034ZM55.8612 3.83857H53.4991C53.5141 4.50929 53.9572 4.88783 54.6138 4.88783C54.9645 4.88783 55.2844 4.82925 55.5684 4.72034L55.6916 5.26712C55.3565 5.41283 54.9623 5.48569 54.5033 5.48569C53.3948 5.48569 52.7391 4.78568 52.7391 3.70038C52.7391 2.61432 53.4106 1.7979 54.4147 1.7979C55.3183 1.7979 55.8876 2.46861 55.8876 3.48181C55.8905 3.62001 55.8829 3.74394 55.8612 3.83857ZM55.1394 3.27752C55.1394 2.73073 54.863 2.34468 54.3598 2.34468C53.9069 2.34468 53.5509 2.73825 53.499 3.27752H55.1394Z" fill="white"/>
</svg>
