<svg width="72" height="72" viewBox="0 0 72 72" fill="none" xmlns="http://www.w3.org/2000/svg">
<path d="M71.5781 26.1562L64.2224 16.3486L64.5094 14.3401C64.6032 13.6828 64.3823 13.0196 63.9128 12.5502L59.4381 8.0755L63.9126 3.60081C64.7364 2.77717 64.7364 1.44151 63.9126 0.61773C63.089 -0.20591 61.7533 -0.20591 60.9296 0.61773L56.455 5.09242L51.9803 0.61773C51.5109 0.148184 50.8477 -0.0720352 50.1904 0.0210586L29.3086 3.00414C28.8568 3.06868 28.4381 3.27807 28.1154 3.60081L2.26178 29.4544C-0.753926 32.47 -0.753926 37.377 2.26178 40.3925L24.1378 62.2687C24.5853 62.7162 25.0752 63.0957 25.5937 63.4103V64.2656C25.5937 68.5303 29.0634 72 33.3281 72H64.2656C68.5303 72 72 68.5303 72 64.2656V27.4218C72 26.9655 71.8519 26.5213 71.5781 26.1562ZM5.24486 37.4095C3.87404 36.0386 3.87404 33.8083 5.24486 32.4375L30.6012 7.08114L49.7428 4.34668L53.4718 8.07564L50.4887 11.0587L48.9971 9.56711C48.1735 8.74347 46.8378 8.74347 46.014 9.56711C45.1902 10.3907 45.1902 11.7264 46.014 12.5502L51.9803 18.5165C52.3922 18.9284 52.9321 19.1344 53.4718 19.1344C54.0115 19.1344 54.5515 18.9284 54.9633 18.5165C55.787 17.6928 55.787 16.3572 54.9633 15.5334L53.4716 14.0418L56.4547 11.0587L60.1837 14.7877L57.4491 33.9293L32.0928 59.2856C31.4288 59.9497 30.546 60.3153 29.6069 60.3153C28.6678 60.3153 27.7849 59.9495 27.1209 59.2856L5.24486 37.4095ZM67.7812 64.2656C67.7812 66.2041 66.2041 67.7812 64.2656 67.7812H33.3281C31.4769 67.7812 29.9565 66.3429 29.823 64.5252C31.7309 64.4723 33.623 63.7217 35.0758 62.2687L60.9294 36.4151C61.2521 36.0924 61.4615 35.6737 61.5261 35.2219L63.3785 22.2549L67.7812 28.125V64.2656Z" fill="#005FEC"/>
</svg>
