<svg width="48" height="5" viewBox="0 0 48 5" fill="none" xmlns="http://www.w3.org/2000/svg">
<path d="M4.22182 4.03725C3.77738 4.4817 3.25886 4.70392 2.59219 4.70392C1.92553 4.70392 1.40701 4.4817 0.962563 4.03725C0.518119 3.59281 0.295898 3.07429 0.295898 2.40762C0.295898 1.74096 0.518119 1.22244 0.962563 0.777995C1.40701 0.33355 1.92553 0.111328 2.59219 0.111328C3.25886 0.111328 3.77738 0.33355 4.22182 0.777995C4.66627 1.22244 4.88849 1.74096 4.88849 2.40762C4.88849 3.07429 4.66627 3.59281 4.22182 4.03725ZM1.40701 3.66688C1.70331 3.96318 2.14775 4.1854 2.59219 4.1854C3.03664 4.1854 3.48108 4.03725 3.77738 3.66688C4.07367 3.37059 4.2959 2.92614 4.2959 2.40762C4.2959 1.88911 4.14775 1.44466 3.77738 1.14837C3.48108 0.852069 3.03664 0.629847 2.59219 0.629847C2.14775 0.629847 1.70331 0.777995 1.40701 1.14837C1.11071 1.44466 0.88849 1.88911 0.88849 2.40762C0.88849 2.92614 1.03664 3.37059 1.40701 3.66688ZM5.7033 4.62985V0.185402H6.36997L8.51812 3.66688V0.185402H9.11071V4.62985H8.51812L6.2959 1.00022V4.62985H5.7033ZM11.6292 4.62985H11.0366V0.70392H9.77738V0.185402H12.8144V0.70392H11.5552V4.62985H11.6292ZM13.6292 4.62985V0.185402H14.9626C15.6292 0.185402 16.2218 0.407624 16.5922 0.777995C17.0366 1.22244 17.1848 1.74096 17.1848 2.40762C17.1848 3.07429 16.9626 3.59281 16.5922 4.03725C16.1477 4.4817 15.6292 4.62985 14.9626 4.62985H13.6292ZM14.1477 4.11133H14.9626C15.4811 4.11133 15.8515 3.96318 16.1477 3.66688C16.444 3.37059 16.5922 2.92614 16.5922 2.40762C16.5922 1.88911 16.444 1.44466 16.1477 1.14837C15.8515 0.852069 15.407 0.70392 14.9626 0.70392H14.1477V4.11133ZM20.5922 0.70392H18.5922V2.11133H20.444V2.62985H18.5922V4.03725H20.5922V4.62985H17.9996V0.185402H20.5922V0.70392ZM24.8144 0.185402L23.1848 2.11133L24.9626 4.62985H24.2959L22.8144 2.55577L22.1477 3.37059V4.62985H21.5552V0.185402H22.1477V2.4817L24.0737 0.185402H24.8144ZM26.9626 4.62985V0.185402H27.5552V2.11133H29.7774V0.185402H30.37V4.62985H29.7774V2.62985H27.5552V4.62985H26.9626ZM33.9996 0.70392H31.9996V2.11133H33.8514V2.62985H31.9996V4.03725H33.9996V4.62985H31.407V0.185402H33.9996V0.70392ZM36.37 4.62985H35.7774V0.70392H34.5181V0.185402H37.5552V0.70392H36.2959V4.62985H36.37ZM43.407 4.03725C42.9626 4.4817 42.444 4.70392 41.7774 4.70392C41.1107 4.70392 40.5922 4.4817 40.1477 4.03725C39.7033 3.59281 39.4811 3.07429 39.4811 2.40762C39.4811 1.74096 39.7033 1.22244 40.1477 0.777995C40.5922 0.33355 41.1107 0.111328 41.7774 0.111328C42.444 0.111328 42.9626 0.33355 43.407 0.777995C43.8515 1.22244 44.0737 1.74096 44.0737 2.40762C44.0737 3.07429 43.8515 3.59281 43.407 4.03725ZM40.5922 3.66688C40.8885 3.96318 41.3329 4.1854 41.7774 4.1854C42.2218 4.1854 42.6663 4.03725 42.9626 3.66688C43.2589 3.37059 43.4811 2.92614 43.4811 2.40762C43.4811 1.88911 43.3329 1.44466 42.9626 1.14837C42.6663 0.852069 42.2218 0.629847 41.7774 0.629847C41.3329 0.629847 40.8885 0.777995 40.5922 1.14837C40.2959 1.44466 40.0737 1.88911 40.0737 2.40762C40.0737 2.92614 40.2218 3.37059 40.5922 3.66688ZM45.407 4.62985H44.8144V0.185402H46.2959C46.6663 0.185402 46.9626 0.33355 47.2589 0.555773C47.5552 0.777995 47.7033 1.14837 47.7033 1.51874C47.7033 1.88911 47.5552 2.1854 47.2589 2.4817C46.9626 2.70392 46.6663 2.85207 46.2959 2.85207H45.3329V4.62985H45.407ZM45.407 2.25948H46.37C46.5922 2.25948 46.8144 2.1854 46.9626 2.03725C47.1107 1.88911 47.1848 1.66688 47.1848 1.51874C47.1848 1.37059 47.1107 1.14837 46.9626 1.00022C46.8144 0.852069 46.5922 0.777995 46.37 0.777995H45.407V2.25948Z" fill="white"/>
</svg>
